<?xml version="1.0" encoding="utf-8"?>
<!-- Generator: Adobe Illustrator 28.3.0, SVG Export Plug-In . SVG Version: 6.00 Build 0)  -->
<svg version="1.1" id="Ebene_1" xmlns="http://www.w3.org/2000/svg" xmlns:xlink="http://www.w3.org/1999/xlink" x="0px" y="0px"
	 viewBox="0 0 566.9 566.9" style="enable-background:new 0 0 566.9 566.9;" xml:space="preserve">
<style type="text/css">
	.st0{fill:#30224D;}
	.st1{fill:url(#SVGID_1_);}
	.st2{fill:url(#SVGID_00000063632412997076283980000000791668945657773220_);}
	.st3{fill:url(#SVGID_00000102521344271597595990000011267851885198731164_);}
	.st4{fill:#FBFCFB;}
	.st5{fill:url(#SVGID_00000050633067039527406980000008939748503300634499_);}
	.st6{fill:url(#SVGID_00000138554279507855024150000017142768980333433765_);}
	.st7{fill:url(#SVGID_00000121976248404391513630000012212217868089446298_);}
</style>
<g>
	<path class="st0" d="M87,227.5c1.4,7.4,3.7,14.4,6.8,21.1c9.5,20.9,26.9,38.1,46.6,48.8c5.3,2.9,12.3,6.1,21.1,9.7
		c18.5,7.6,37.1,15.5,56,23.5c-2,2.6-3.9,4.5-5.5,5.5c-4.2,2.6-8.3,5.3-12.3,8.2c-11.1,7.7-21.7,15.3-31.9,22.6
		c-10-7-18.5-13.7-25.4-20.2c-10.3-9.7-18.7-20.1-25.3-31.2c-4.9-8.3-10.1-18.8-15.6-31.6C95.5,270,91,256,87.9,241.9
		c-0.3-1.5-1-4.5-1.3-6.2c-0.6-3.3-0.9-5.2-1.1-7.7c0-0.4,0.3-0.8,0.7-0.8C86.4,227.1,86.7,227.2,87,227.5z"/>
	<g>
		<g>
			<path class="st0" d="M276.4,29.2c-0.5,0.9-1.8,2.6-2.1,2.8l-1.2,1.2c-5.7,4.8-10.6,9.5-14.7,14.3c-2.7,1.5-4.7,3.4-6,5.5
				c-0.1,0.2-0.4,0.4-0.7,0.5c-0.3,0.1-0.6,0.3-0.9,0.6c-12.9,13.8-22.2,29.7-27.9,47.6c-1.7,5.2-2.7,10.6-3.2,16.1
				c-2.7,32.1,8.3,60.5,30.1,83.7c5.9,6.3,13.1,11.9,20,17.9c-11.5-0.3-21-0.1-28.5,0.5c-25.1,2.1-48.7,10.1-70.7,24.1
				c-7.9,5.1-15.8,10.6-23.8,16.7c-10.1,7.7-18.6,16.6-25.8,26.7c-0.6,0.8-0.9,1.1-1.3,1.6c0,0-2.3-2.2-2.7-2.5
				c-2.9-2.9-7.5-7.3-11.5-13c-4.9-5.8-10.4-17.3-10.8-18c-3.1-6.7-5.4-13.7-6.8-21.1c-2-10.2-2.8-19.8-2.4-28.7
				c0.3-6.5,1.4-13.7,3.3-21.6c3.9-15.7,12.9-30,24.3-41.4c5.6-5.7,11.1-10.6,16.6-14.8c8-6.2,24.6-18.2,49.6-36
				c5.7-4.1,11.7-8.5,17.7-13.2C211.4,67.5,225.5,57,239.3,47c6.1-4.4,13-8.6,19.5-11.9C263.5,32.7,270.3,30.5,276.4,29.2z"/>
			<path class="st0" d="M484.3,127.2c-2-17-16.6-25.6-30.2-32.8c-9-4.7-18.4-9.2-28.1-13.4c-16.7-7.2-33.9-14.7-51.6-22.4
				c-16.1-7.1-31.9-15-48-22.2c-6.9-3.1-13.1-5.3-18.4-6.6c-10.8-2.7-20.4-3.1-31.6-0.7c-0.3,0.4-0.6,0.9-0.9,1.2
				c-0.1,0.1-1.1,1.5-1.4,1.7l-1.1,1.1c-5.7,4.8-10.6,9.5-14.7,14.3c-6,8.5-9.6,16.9-10.7,25.3c-1.4,10.8-1,21.8,1.2,33.3
				c3.2,16.3,9.7,31.4,19.2,45.2c9.1,13.1,20.6,24.6,34.4,34.4c5.3,3.8,11.2,7.6,17.7,11.4c11.6,6.8,24.8,12.3,39.8,16.5
				c2.7,0.7,5.3,1.3,8,1.6c3.6,0.4,6.9,1.3,10.5,1.5c8.5,0.6,17,1.2,25.7,1.9l33.5-26.2c0,0,17.8-14.2,23.5-19.3
				c2.7-2.4,10.3-10.1,10.3-10.1l1.1-1.2l2.3-3c2.7-3.8,4.5-6.7,5.3-8.4C484,143.1,485.3,135.4,484.3,127.2z"/>
			<path class="st0" d="M258.4,47.5c-6,8.5-9.6,16.9-10.7,25.3c-1.4,10.8-1,21.8,1.2,33.3c3.2,16.3,9.7,31.4,19.2,45.2
				c9.1,13.1,20.6,24.6,34.4,34.4c5.3,3.8,11.2,7.6,17.7,11.4c11.6,6.8,24.8,12.3,39.8,16.5c2.7,0.7,5.3,1.3,8,1.6
				c3.6,0.4,6.9,1.3,10.5,1.5c8.5,0.6,17,1.2,25.7,1.9c-11.1,9.1-22.3,17.8-33.7,26c-2,1.5-4,2.9-6.2,4.5c-2.2,1.5-2.8,1.9-5.7,3.7
				c-0.7,0.4-1.4,1-2.5,1.7c-4.9-1.9-10.2-3.9-15.1-5.6c-21.5-7.3-42.7-15.8-63.5-25.6c-0.9-0.4-2.3-1.1-4.1-2.1
				c-1.8-0.8-2.6-1.3-3.9-1.9c-6.9-5.9-14.1-11.6-20-17.9c-21.7-23.2-32.8-51.7-30.1-83.7c0.5-5.5,1.5-10.8,3.2-16.1
				c5.7-17.9,15.4-34.5,27.8-47.6C250.9,53.8,255.4,48.9,258.4,47.5z"/>
			<path class="st0" d="M269.6,219.5c0.2,0.1,2.8,1.3,3.9,1.9c1.9,1,1.9,1,4.1,2.1c20.8,9.8,42,18.3,63.5,25.6
				c5.7,1.9,11.2,4,16.5,6.2c5.8,2.4,11.2,4.6,16.3,6.6c7.6,3,15.1,6,22.7,9c14.3,5.7,27.5,11.5,39.4,17.4
				c5.7,2.8,11.1,6.5,16.3,11.1l0.6,0.9c0.2,0.4,0.2,0.5-0.3,0.4c-3.2-1-11.2,2.5-13.6,3.6c-18,8.3-35.5,18.4-52.7,30.3
				c-7.8,5.4-15.7,11-23.7,16.6c-6.7,4.7-13.7,8.7-21.1,12.1c-12,5.4-25.6,7.4-39,7.9c-22.1-9.7-44.5-18.9-67.2-27.8
				c-5.9-2.3-11.7-4.2-17.2-5.7c-18.9-8.1-37.6-15.9-56-23.5c-8.8-3.6-15.8-6.9-21.1-9.7c-8.8-4.7-15.2-9.7-21.4-15.1
				c0.7-1,1.2-1.7,1.2-1.7c6.6-10.5,15.7-19,25.8-26.7c7.9-6.1,15.9-11.6,23.8-16.7c22-14,45.5-22.1,70.7-24.1
				C248.6,219.4,258.1,219.2,269.6,219.5z"/>
			<path class="st0" d="M453.3,300.3c14.9,13.9,24.4,29.4,30,48.7c2.9,9.8,3.9,19.5,3.1,29.2c-0.2,3.1-0.8,7.3-1.6,12.4
				c-1.7,7.1-4.2,14.1-7.4,20.9l-1.2,2.3c-0.5,0.6-0.7,1.2-0.8,1.7c-0.6,0.6-1,1.4-1.3,2.2l-2.2,3.9l-3.3,5.1
				c-7.5,10.7-16.4,20.4-26.7,29l-4.7,3.8l-3.7,2.8l-3.8,2.7l-5.3,3.6l-9.6,6.8l-3,2L337.3,532c-0.1-1.1,0-2.4,0.1-4.5
				c0.1-2.3,0.2-3.7,0.3-4c0.6-1.2,1.2-1.8,1.9-3c4.7-8.9,8.3-15.9,10.3-20.9c3.2-8,5.5-17.8,7-29.4c1.9-15.2-0.5-30.3-7.3-45.3
				c-7.5-16.7-18.2-31-32.1-42.9c-1.8-1.6-4.3-3.4-7.3-5.6c-2.5-1.7-5-3.5-7.5-5.3c13.4-0.5,26.9-2.5,39-7.9
				c7.4-3.3,14.4-7.3,21.1-12.1c8-5.6,15.8-11.2,23.7-16.6c17.2-11.9,34.8-22,52.7-30.3c2.4-1.1,9.3-3.5,12.7-3.8
				C452.5,300.3,453.3,300.3,453.3,300.3z"/>
			<path class="st0" d="M218.4,337.5c5.6,1.5,11.3,3.4,17.2,5.7c22.6,8.9,45,18.1,67.2,27.8c2.5,1.8,5,3.6,7.5,5.3
				c3.1,2.1,5.5,4,7.3,5.6c13.9,12,24.5,26.3,32.1,42.9c6.8,15.1,9.2,30.2,7.3,45.3c-1.5,11.6-3.8,21.4-7,29.4
				c-2,4.9-9.6,19.9-10.4,21.1c-0.4,0.5-0.7,1.1-1.7,2.8c0.1-1.3,0.2-2.6,0.2-3.4c0.2-4.8,0.3-7,0.5-13.1c0.2-4.2,0.5-8.4,0.2-12.3
				c-0.2-2.2-0.4-4.5-0.6-6.8c-0.2-2.4-0.7-4.6-1.3-6.8c-3.4-11.3-8.1-21.4-14.1-30.3c-10.9-16.1-24.8-29.3-41.7-39.7
				c-9.8-6.1-20.5-11.9-32.1-17.5c-16.3-7.9-30.8-13.1-47.9-15.6c-3.8-0.6-8-0.8-12.6-0.7c-5.6,0.1-10,0.3-13.2,0.6
				c-3.4,0.4-8.8,1.5-16.2,3.3l9.7-7.4c10.2-7.3,20.9-14.8,31.9-22.6c4-2.8,8.2-5.5,12.3-8.2C214.5,341.9,216.4,340.1,218.4,337.5z"
				/>
			<path class="st0" d="M338.6,494.6c-0.2-2.2-0.4-4.5-0.6-6.8c-0.2-2.4-0.7-4.6-1.3-6.8c-3.4-11.3-8.1-21.4-14.1-30.3
				c-10.9-16.1-24.8-29.3-41.7-39.7c-9.8-6.1-20.5-11.9-32.1-17.5c-16.3-7.9-30.8-13.1-47.9-15.6c-3.8-0.6-8-0.8-12.6-0.7
				c-5.6,0.1-10,0.3-13.2,0.6c-3.4,0.4-8.8,1.5-16.2,3.3c-2.6,1.2-5.2,2.7-8,4.7c-16.2,11.2-32.9,22.2-47,36.1
				C96.8,429,90,439.6,90,449.6c-0.1,18.5,10.6,33,26.4,42.1c6.6,3.8,12.9,7,19.1,9.8c7.4,3.3,14.6,6.7,22.1,9.9
				c18.3,7.7,36.5,15.5,54.7,23.4c22,9.5,36.5,15.9,43.7,19.2c14.1,6.4,28.1,7.5,41.9,3.2c5-1.5,10.7-4.5,17.3-8.8
				c7.9-5.2,15-10.5,22.2-16.5c-0.1-1.2,0.1-1.2,0.1-3.4c0-2.2,0.2-2.6,0.3-4.1c0.2-2,0.3-3.4,0.3-4.3c0.1-2.1,0.2-4.5,0.3-6.9
				c0-1,0.2-5.3,0.3-6.5C338.7,502.5,339,498.6,338.6,494.6z"/>
		</g>
		<g>
			<g>
				<linearGradient id="SVGID_1_" gradientUnits="userSpaceOnUse" x1="142.071" y1="231.4065" x2="263.4783" y2="83.936">
					<stop  offset="0" style="stop-color:#D9BEFE"/>
					<stop  offset="0.4107" style="stop-color:#CBAEFD"/>
					<stop  offset="1" style="stop-color:#B99BFB"/>
				</linearGradient>
				<path class="st1" d="M273.5,23.5c-0.5,0.9-1.8,2.6-2.1,2.8l-1.2,1.2c-5.7,4.8-10.6,9.5-14.7,14.3c-2.7,1.5-4.7,3.4-6,5.5
					c-0.1,0.2-0.4,0.4-0.7,0.5c-0.3,0.1-0.6,0.3-0.9,0.6C235.1,62.2,225.8,78.1,220,96c-1.7,5.2-2.7,10.6-3.2,16.1
					c-2.7,32.1,8.3,60.5,30.1,83.7c5.9,6.3,13.1,11.9,20,17.9c-11.5-0.3-21-0.1-28.5,0.5c-25.1,2.1-48.7,10.1-70.7,24.1
					c-7.9,5.1-15.8,10.6-23.8,16.7c-10.1,7.7-18.6,16.6-25.8,26.7c-0.6,0.8-0.9,1.1-1.3,1.6c0,0-2.3-2.2-2.7-2.5
					c-2.9-2.9-7.5-7.3-11.5-13c-4.9-5.8-10.4-17.3-10.8-18c-3.1-6.7-5.4-13.7-6.8-21.1c-2-10.2-2.8-19.8-2.4-28.7
					c0.3-6.5,1.4-13.7,3.3-21.6c3.9-15.7,12.9-30,24.3-41.4c5.6-5.7,11.1-10.6,16.6-14.8c8-6.2,24.6-18.2,49.6-36
					c5.7-4.1,11.7-8.5,17.7-13.2c14.3-11.1,28.4-21.6,42.3-31.6c6.1-4.4,13-8.6,19.5-11.9C260.6,27,267.4,24.9,273.5,23.5z"/>
				
					<linearGradient id="SVGID_00000178888484470631770770000013733401000015526564_" gradientUnits="userSpaceOnUse" x1="254.7423" y1="153.3098" x2="473.6296" y2="60.4759">
					<stop  offset="0" style="stop-color:#9152F6"/>
					<stop  offset="0.5268" style="stop-color:#A565FB"/>
					<stop  offset="1" style="stop-color:#B371FF"/>
				</linearGradient>
				<path style="fill:url(#SVGID_00000178888484470631770770000013733401000015526564_);" d="M481.5,121.6
					c-2-17-16.6-25.6-30.2-32.8c-9-4.7-18.4-9.2-28.1-13.4c-16.7-7.2-33.9-14.7-51.6-22.4c-16.1-7.1-31.9-15-48-22.2
					c-6.9-3.1-13.1-5.3-18.4-6.6c-10.8-2.7-20.4-3.1-31.6-0.7c-0.3,0.4-0.6,0.9-0.9,1.2c-0.1,0.1-1.1,1.5-1.4,1.7l-1.1,1.1
					c-5.7,4.8-10.6,9.5-14.7,14.3c-6,8.5-9.6,16.9-10.7,25.3c-1.4,10.8-1,21.8,1.2,33.3c3.2,16.3,9.7,31.4,19.2,45.2
					c9.1,13.1,20.6,24.6,34.4,34.4c5.3,3.8,11.2,7.6,17.7,11.4c11.6,6.8,24.8,12.3,39.8,16.5c2.7,0.7,5.3,1.3,8,1.6
					c3.6,0.4,6.9,1.3,10.5,1.5c8.5,0.6,17,1.2,25.7,1.9l33.5-26.2c0,0,17.8-14.2,23.5-19.3c2.7-2.4,10.3-10.1,10.3-10.1l1.1-1.2
					l2.3-3c2.7-3.8,4.5-6.7,5.3-8.4C481.2,137.4,482.4,129.7,481.5,121.6z"/>
				
					<linearGradient id="SVGID_00000072280933563425384600000013589983790751088815_" gradientUnits="userSpaceOnUse" x1="238.0786" y1="188.1331" x2="393.5664" y2="87.7762">
					<stop  offset="0" style="stop-color:#7136DB"/>
					<stop  offset="0.3857" style="stop-color:#773CDE"/>
				</linearGradient>
				<path style="fill:url(#SVGID_00000072280933563425384600000013589983790751088815_);" d="M255.5,41.8c-6,8.5-9.6,16.9-10.7,25.3
					c-1.4,10.8-1,21.8,1.2,33.3c3.2,16.3,9.7,31.4,19.2,45.2c9.1,13.1,20.6,24.6,34.4,34.4c5.3,3.8,11.2,7.6,17.7,11.4
					c11.6,6.8,24.8,12.3,39.8,16.5c2.7,0.7,5.3,1.3,8,1.6c3.6,0.4,6.9,1.3,10.5,1.5c8.5,0.6,17,1.2,25.7,1.9
					c-11.1,9.1-22.3,17.8-33.7,26c-2,1.5-4,2.9-6.2,4.5c-2.2,1.5-2.8,1.9-5.7,3.7c-0.7,0.4-1.4,1-2.5,1.7
					c-4.9-1.9-10.2-3.9-15.1-5.6c-21.5-7.3-42.7-15.8-63.5-25.6c-0.9-0.4-2.3-1.1-4.1-2.1c-1.8-0.8-2.6-1.3-3.9-1.9
					c-6.9-5.9-14.1-11.6-20-17.9c-21.7-23.2-32.8-51.7-30.1-83.7c0.5-5.5,1.5-10.8,3.2-16.1c5.7-17.9,15.4-34.5,27.8-47.6
					C248.1,48.2,252.5,43.3,255.5,41.8z"/>
				<path class="st4" d="M266.8,213.8c0.2,0.1,2.8,1.3,3.9,1.9c1.9,1,1.9,1,4.1,2.1c20.8,9.8,42,18.3,63.5,25.6
					c5.7,1.9,11.2,4,16.5,6.2c5.8,2.4,11.2,4.6,16.3,6.6c7.6,3,15.1,6,22.7,9c14.3,5.7,27.5,11.5,39.4,17.4
					c5.7,2.8,11.1,6.5,16.3,11.1l0.6,0.9c0.2,0.4,0.2,0.5-0.3,0.4c-3.2-1-11.2,2.5-13.6,3.6c-18,8.3-35.5,18.4-52.7,30.3
					c-7.8,5.4-15.7,11-23.7,16.6c-6.7,4.7-13.7,8.7-21.1,12.1c-12,5.4-25.6,7.4-39,7.9c-22.1-9.7-44.5-18.9-67.2-27.8
					c-5.9-2.3-11.7-4.2-17.2-5.7c-18.9-8.1-37.6-15.9-56-23.5c-8.8-3.6-15.8-6.9-21.1-9.7c-8.8-4.7-15.2-9.7-21.4-15.1
					c0.7-1,1.2-1.7,1.2-1.7c6.6-10.5,15.7-19,25.8-26.7c7.9-6.1,15.9-11.6,23.8-16.7c22-14,45.5-22.1,70.7-24.1
					C245.8,213.7,255.3,213.5,266.8,213.8z"/>
				
					<linearGradient id="SVGID_00000089547596304310407790000014181920855140973444_" gradientUnits="userSpaceOnUse" x1="329.5441" y1="447.8147" x2="459.9727" y2="318.2416">
					<stop  offset="0" style="stop-color:#E09BF5"/>
					<stop  offset="1" style="stop-color:#F394F9"/>
				</linearGradient>
				<path style="fill:url(#SVGID_00000089547596304310407790000014181920855140973444_);" d="M450.5,294.6
					c14.9,13.9,24.4,29.4,30,48.7c2.9,9.8,3.9,19.5,3.1,29.2c-0.2,3.1-0.8,7.3-1.6,12.4c-1.7,7.1-4.2,14.1-7.4,20.9l-1.2,2.3
					c-0.5,0.6-0.7,1.2-0.8,1.7c-0.6,0.6-1,1.4-1.3,2.2l-2.2,3.9l-3.3,5.1c-7.5,10.7-16.4,20.4-26.7,29l-4.7,3.8l-3.7,2.8l-3.8,2.7
					l-5.3,3.6l-9.6,6.8l-3,2l-74.6,54.4c-0.1-1.1,0-2.4,0.1-4.5c0.1-2.3,0.2-3.7,0.3-4c0.6-1.2,1.2-1.8,1.9-3
					c4.7-8.9,8.3-15.9,10.3-20.9c3.2-8,5.5-17.8,7-29.4c1.9-15.2-0.5-30.3-7.3-45.3c-7.5-16.7-18.2-31-32.1-42.9
					c-1.8-1.6-4.3-3.4-7.3-5.6c-2.5-1.7-5-3.5-7.5-5.3c13.4-0.5,26.9-2.5,39-7.9c7.4-3.3,14.4-7.3,21.1-12.1
					c8-5.6,15.8-11.2,23.7-16.6c17.2-11.9,34.8-22,52.7-30.3c2.4-1.1,9.3-3.5,12.7-3.8C449.7,294.6,450.5,294.6,450.5,294.6z"/>
				
					<linearGradient id="SVGID_00000069363085620180952280000004533726620148205750_" gradientUnits="userSpaceOnUse" x1="206.9018" y1="492.0649" x2="335.6334" y2="340.3442">
					<stop  offset="0.4666" style="stop-color:#793ACD"/>
					<stop  offset="0.8752" style="stop-color:#7E3CD2"/>
				</linearGradient>
				<path style="fill:url(#SVGID_00000069363085620180952280000004533726620148205750_);" d="M215.6,331.8
					c5.6,1.5,11.3,3.4,17.2,5.7c22.6,8.9,45,18.1,67.2,27.8c2.5,1.8,5,3.6,7.5,5.3c3.1,2.1,5.5,4,7.3,5.6
					c13.9,12,24.5,26.3,32.1,42.9c6.8,15.1,9.2,30.2,7.3,45.3c-1.5,11.6-3.8,21.4-7,29.4c-2,4.9-9.6,19.9-10.4,21.1
					c-0.4,0.5-0.7,1.1-1.7,2.8c0.1-1.3,0.2-2.6,0.2-3.4c0.2-4.8,0.3-7,0.5-13.1c0.2-4.2,0.5-8.4,0.2-12.3c-0.2-2.2-0.4-4.5-0.6-6.8
					c-0.2-2.4-0.7-4.6-1.3-6.8c-3.4-11.3-8.1-21.4-14.1-30.3c-10.9-16.1-24.8-29.3-41.7-39.7c-9.8-6.1-20.5-11.9-32.1-17.5
					c-16.3-7.9-30.8-13.1-47.9-15.6c-3.8-0.6-8-0.8-12.6-0.7c-5.6,0.1-10,0.3-13.2,0.6c-3.4,0.4-8.8,1.5-16.2,3.3l9.7-7.4
					c10.2-7.3,20.9-14.8,31.9-22.6c4-2.8,8.2-5.5,12.3-8.2C211.7,336.3,213.5,334.4,215.6,331.8z"/>
				
					<linearGradient id="SVGID_00000147217582985529582750000010708346371644021430_" gradientUnits="userSpaceOnUse" x1="124.39" y1="544.4595" x2="319.5546" y2="390.1384">
					<stop  offset="0" style="stop-color:#D558F4"/>
					<stop  offset="0.2859" style="stop-color:#C657F0"/>
					<stop  offset="1" style="stop-color:#A456E8"/>
				</linearGradient>
				<path style="fill:url(#SVGID_00000147217582985529582750000010708346371644021430_);" d="M335.8,489c-0.2-2.2-0.4-4.5-0.6-6.8
					c-0.2-2.4-0.7-4.6-1.3-6.8c-3.4-11.3-8.1-21.4-14.1-30.3c-10.9-16.1-24.8-29.3-41.7-39.7c-9.8-6.1-20.5-11.9-32.1-17.5
					c-16.3-7.9-30.8-13.1-47.9-15.6c-3.8-0.6-8-0.8-12.6-0.7c-5.6,0.1-10,0.3-13.2,0.6c-3.4,0.4-8.8,1.5-16.2,3.3
					c-2.6,1.2-5.2,2.7-8,4.7c-16.2,11.2-32.9,22.2-47,36.1c-7.1,7.2-13.9,17.8-13.9,27.8c-0.1,18.5,10.6,33,26.4,42.1
					c6.6,3.8,12.9,7,19.1,9.8c7.4,3.3,14.6,6.7,22.1,9.9c18.3,7.7,36.5,15.5,54.7,23.4c22,9.5,36.5,15.9,43.7,19.2
					c14.1,6.4,28.1,7.5,41.9,3.2c5-1.5,10.7-4.5,17.3-8.8c7.9-5.2,15-10.5,22.2-16.5c-0.1-1.2,0.1-1.2,0.1-3.4
					c0-2.2,0.2-2.6,0.3-4.1c0.2-2,0.3-3.4,0.3-4.3c0.1-2.1,0.2-4.5,0.3-6.9c0-1,0.2-5.3,0.3-6.5C335.9,496.9,336.1,492.9,335.8,489z
					"/>
			</g>
		</g>
	</g>
</g>
</svg>
